<svg xmlns="http://www.w3.org/2000/svg" xmlns:xlink="http://www.w3.org/1999/xlink" id="图层_1" x="0" y="0" version="1.1" viewBox="0 0 1024 1024" xml:space="preserve" style="enable-background:new 0 0 1024 1024"><style type="text/css">.st0{display:none}.st1{fill:#c1dbf7}.st1,.st2,.st3{display:inline}.st2{fill:none}.st3{fill:#665a4d}.st4{fill:#71b5ff}.st4,.st5,.st6{display:inline}.st5{fill:#ffdecc}.st6{fill:#f7c5aa}.st7{fill:#fff}.st7,.st8{display:inline}.st9{clip-path:url(#SVGID_2_);fill:#f9e9e6}.st10,.st11{display:inline;fill:#fccca7}.st11{fill:#efad7d}.st12{fill:#653c1c}.st12,.st13,.st14{display:inline}.st13{fill:#fcd3b2}.st14{fill:#515151}.st15{fill:#333}.st15,.st16,.st17{display:inline}.st16{fill:#e0ecff}.st17{fill:#ffdabe}.st18{fill:#f7e7e8}.st19{fill:#383230}.st20{fill:none}.st21{fill:#ff92a4}.st22{fill:#ffdecc}.st23{fill:#f7c5aa}.st24{fill:#fff}.st25{fill:#f4dbba}</style><g id="男店员" class="st0"><circle cx="512.5" cy="511" r="448.3" class="st1"/><rect width="891.7" height="892.8" x="69.2" y="67.4" class="st2"/><path d="M699.7,332.9l18,3.5c-31.6-45.1-28.6-88.7-166.8-134.3c-69.1-23-118.7-53.6-127.3-69.6 c-3.5,28-2.5,37.6,8,60.1c-26,4.5-48.6-6-73.1-15.5c4.5,26.6,18,48.1,36.1,66.6c-23.1,3.5-53.6,16-89.7,92.2l18-3.5 c-1.5,4-3,7.5-3.5,12c-10.5,19-21,44.6-13.5,69.1c2-3.5,4.5-6.5,7-9.5c7.5,94.2,93.7,168.3,198.4,168.3 c105.2,0,190.9-74.1,198.4-168.3c3,3,5,6,7,9.5C724.7,389.1,701.2,337,699.7,332.9L699.7,332.9z" class="st3"/><path d="M800.9,781.4c-15.5-14-50.1-41.6-155.3-90.7c-17-8-36.1-16.5-57.1-26c-0.5-0.5-1.5-0.5-2.5-1s-2.5-1-3.5-1.5 h-31.6l-82.2-0.5h-28.6c-1.5,0.5-3.5,1.5-5,2.5c-0.5,0.5-1.5,0.5-2,1c-21,9.5-40.1,18-57.1,26c-104.7,49.6-140.3,77.7-155.8,91.2 c-9.5,8.5-17.5,24-24.6,44.6c83.8,85.4,198.5,133.5,318.2,133.3c121.7,0,232.5-49.1,312.6-128.3 C819.9,808.4,811.4,790.4,800.9,781.4L800.9,781.4z" class="st4"/><path d="M586.4,523.3c0-4.5-0.5-8.5-1.5-12.5c-5-26-23.5-42.6-45.6-50.1c-18-6-38.6-6-56.6,0 c-22,7.5-40.6,24-45.6,50.1c-1,4-1,8-1.5,12.5v174.4c19.5,23,45.1,35.6,70.6,37.1h10c25.6-1.5,50.6-13.5,69.6-37.1V525.8 C586.4,524.8,586.4,524.3,586.4,523.3L586.4,523.3z" class="st5"/><path d="M586.4,523.3c0-4.5-0.5-8.5-1.5-12.5c-5-26-23.5-42.6-45.6-50.1c-18-6-38.6-6-56.6,0 c-22,7.5-40.6,24-45.6,50.1c-1,4-1,8-1.5,12.5v117.2c10.5,7.9,21.8,14.8,33.6,20.5c16,7.5,30.1,12,41.6,12c11,0,25.1-4,40.6-11 c12.2-6.1,23.9-13.2,35.1-21L586.4,523.3L586.4,523.3z" class="st6"/><path d="M506.3,734.8l-70.6-68.6l-2-2l-5-5l-53.1,29.1l1.5,2l75.6,105.2l58.6-55.6L506.3,734.8z M594.5,659.1l-5.5,5.5 l-2.5,2l-69.6,68.1l-5,5l58.6,55.6l75.6-104.7l2-2.5L594.5,659.1z" class="st7"/><path d="M511.3,229.7c-153.3,0-180.4,112.7-173.8,206.4v1.5c0.5,10,2,20,3,29.1c2.5,16,5.5,31.1,8.5,44.1 c6.5,25.1,13,43.6,17,48.6c9.5,14,38.6,41.1,69.6,63.1c27.6,19.5,56.6,35.1,75.6,35.1s47.6-15.5,74.7-34.6 c31.6-22,60.6-49.1,70.1-63.6c3.5-5,10.5-23.1,16.5-48.1c3.8-14.5,6.7-29.2,8.5-44.1c1.5-10,2.5-20.5,3.5-31.6 C691.6,341.5,664.6,229.7,511.3,229.7L511.3,229.7z" class="st5"/><path d="M705.2,430.1c-1.5-0.5-3-0.5-4-0.5c-3.5,0-7.5,1-11.5,3.5c-1.5,1-2.5,1.5-4,3c-6,5-11.5,12.5-15.5,22 c-0.9,1.9-1.6,3.9-2,6c-2.3,6.4-3.5,13.2-3.5,20.1v6.5c1,9.5,4,17,9.5,21c1.5,1,2.5,1.5,4,2c13.5,4.5,30.1-10.5,37.6-33.6 C722.7,456.7,718.2,434.7,705.2,430.1L705.2,430.1z M355,463.7c-0.5-2-1.5-4-2-5.5c-3.5-9-9-16-14.5-21l-0.5-0.5l-1.5-1.5 c-4.5-3.5-9-5.5-14-5.5c-1.5,0-3.5,0-5,0.5c-13,4.5-18,26.5-10.5,49.6c7.5,23,24.6,38.1,37.6,33.6c2-0.5,3.5-1.5,5-2.5 c5-4,8.5-12,9-21v-5C358.5,477.7,357.5,470.7,355,463.7L355,463.7z" class="st5"/><path d="M594.5,369.5c-11-19.5-14.5-42.1-4.5-63.6c-25.1,53.1-154.8,84.7-149.3,79.2c17-17,41.6-63.6,38.6-68.6 C472.8,306,373.6,389.1,337,438.7c-24-116.7,54.6-228,173.4-228c123.3,0,208.9,117.7,176.9,230c-12.5-44.1-45.6-70.6-71.6-100.7 C606.1,347.9,598.9,358,594.5,369.5L594.5,369.5z" class="st3"/><g class="st8"><g><defs><rect id="SVGID_1_" width="963.2" height="964.2" x="812.7" y="-9.1"/></defs><clipPath id="SVGID_2_"><use xlink:href="#SVGID_1_" style="overflow:visible"/></clipPath><path d="M1294.2-9.3c266.8,0,481.5,214.8,481.5,481.5S1561,953.8,1294.2,953.8S812.7,739,812.7,472.3 S1027.9-9.3,1294.2-9.3L1294.2-9.3z" class="st9"/></g></g><path d="M1244.6,746.2l31.3,45.8l-1.4,0.5l19.3,22.6l25.5-27.4h1l42.4-63.1V675L1244.6,746.2z" class="st10"/><path d="M1362.6,675.5v-22.6c-27.9,15.9-54.9,24.6-66.5,25h-1c-11.1-1-36.1-10.1-62.6-25l-1.4,74.2l13.5,19.7 L1362.6,675.5z" class="st11"/><path d="M1255.9,930.6l-75.6-70.3c48.2,10.1,61.2,84.3,106.9,102.6c1,0.5,11.6-1.9,44.3-9.6c1.4-1-3.4-43.3-2.4-41.4 c6.7,12,12,24.6,17.3,37.1c20.2-25.5,35.6-44.8,40.5-75.1l-22.6-28.9l27.9,19.3l17.8-42.4c0,0-66.5-39.5-84.3-87.6 c-12-30.3-16.9-196.5-16.9-196.5s-3.4-41.4-23.6-87.2c-1.4-2.9-2.4-5.8-3.9-8.7c-55.4-152.6-199.4-122.3-199.4-122.3 c-95.3-8.2-139.2,33.7-171.9,88.6c-7.7,11.1-14.9,24.1-21.2,38c-23.6,53.4-35.6,130.5-25.5,241.3c0,0,10.6,152.2,71.3,224.4 c20.2-8.7,32.7-41.4,53-49.1c41.4,0.5,24.6,1.9,31.3-16.4c9.1-19.7,6.7-51,1.4-74.2c-13.5-9.6-25.5-20.7-27-22.2 c-8.7-7.7-62.1-57.3-67.9-86.2l-1.4-2.9c-0.5-1.9-0.5-3.4-1-5.3c-6.3,1.4-13,0.5-18.8-2.9c-10.6-6.3-14.9-18.8-16.4-30.3 c-1.4-10.1-1-22.6,5.3-31.8c202.3-27.4,188.3-156,188.3-156c9.6,102.1,134.8,140.6,191.2,153.6c12,22.2,2.4,65.5-25,66.9 c-1.4,0-2.4,0-3.4-0.5c-1,3.9-1.9,7.2-2.9,11.1c-12,44.3-41.9,68.4-77,98.7c-7.2,7.2-12.5,7.7-19.7,13c1.4,19.3-2.4,51,5.8,67.4 C1159.6,846.3,1252.1,921.4,1255.9,930.6L1255.9,930.6z" class="st12"/><path d="M1352.5,662.4c7.2-4.8,16.9-11.1,25.5-18.8c35.6-29.9,64.5-53.5,76.1-97.8c1-3.4,1.9-7.2,2.9-11.1 c1,0.5,2.4,0.5,3.4,0.5c27.4-1.4,37.1-44.8,25-66.9c-56.3-13-181.5-51.5-191.2-153.6c0,0,14,128.6-187.8,156h-0.5 c-6.3,9.1-6.3,21.2-5.3,31.8c1.4,11.6,5.8,24.1,16.4,30.3c5.8,3.4,12.5,4.3,18.8,2.9c0.5,1.9,0.5,3.4,1,5.3c0,1,0.5,1.9,1.4,2.9 c5.8,28.9,59.2,78.5,67.9,86.2c1.4,1.4,10.1,10.6,23.6,20.2C1257.6,670.6,1306.7,694.2,1352.5,662.4L1352.5,662.4z" class="st13"/><path d="M1451.7,792.9l15.4,37.6l-76.1-21.7c-16.9,45.7-46.2,122.3-54.9,143c60.7-4.3,138.2-24.6,194.1-58.7 C1517.2,862.8,1488.8,818.5,1451.7,792.9L1451.7,792.9z" class="st14"/><path d="M1128.6,833.4l17.8-45.3c-49.6,31.3-73.7,69.3-86.2,105.9c56.3,30.3,110.8,47.7,191.7,57.8 c-7.2-15.4-35.6-89.1-53.4-137.7L1128.6,833.4z" class="st15"/><path d="M1295.2,816.5l-1.4-1.4L1276,792l-77.5,21.7c17.8,48.6,45.7,122.8,53.9,139.7c7.7,0.5,15.4,0.5,23.1,0.5 c6.3,0,13,0.5,19.3,0V816.5H1295.2z" class="st16"/><path d="M1466.6,830.5l-14.9-37.1l-18.8-47.7l-70.3-22.6l-0.5,0.5l-42.4,63.1h-1l-25.5,27.4l1.4,1.4v138.2 c14-0.5,28.4-0.5,41.9-1.9c9.1-20.7,37.1-97.3,53.9-143L1466.6,830.5z M1198.4,813.7l76.1-21.2l1.4-0.5l-31.3-45.8l-12-17.8 l-1.4-1.9l-69.3,22.2l-15.4,39.5l-17.8,45.3L1198.4,813.7z" class="st7"/><path d="M1294.2,318.1v-3.4c0,0,14,128.6-187.8,156h-0.5c-6.3,9.1-6.3,21.2-5.3,31.8c1.4,11.6,5.8,24.1,16.4,30.3 c5.8,3.4,12.5,4.3,18.8,2.9c0.5,1.9,0.5,3.4,1,5.3c0,1,0.5,1.9,1.4,2.9c5.8,28.9,59.2,78.5,67.9,86.2c1.4,1.4,10.1,10.6,23.6,20.2 c18.8,14,36.6,22.2,66,27.4L1294.2,318.1z" class="st17"/></g><g id="女店员"><circle cx="513.4" cy="512.9" r="509.9" class="st18"/><path d="M751.4,313.2l10.9,525l-221.6-65L528,682.7L751.4,313.2z M273.6,313.2l-18.2,483.6l230.8-23.5l-9.1-92.4 L273.6,313.2z" class="st19"/><rect width="1014.3" height="1015.6" x="9.1" y="8.3" class="st20"/><path d="M841.5,820.4c-17.6-15.9-57-47.3-176.7-103.2c-19.3-9.1-41.1-18.8-65-29.6c-0.6-0.6-1.7-0.6-2.8-1.1 c-1.1-0.6-2.8-1.1-4-1.7h-35.9l-93.5-0.6H431c-1.7,0.6-4,1.7-5.7,2.8c-0.6,0.6-1.7,0.6-2.3,1.1c-23.9,10.8-45.6,20.5-65,29.6 C239,774.3,198.5,806.2,180.9,821.6c-10.8,9.7-19.9,27.3-28,50.7c95.3,97.1,225.8,151.9,362,151.6c138.4,0,264.5-55.9,355.6-145.9 C863.1,851.2,853.4,830.7,841.5,820.4L841.5,820.4z" class="st21"/><path d="M597.5,532.5c0-5.1-0.6-9.7-1.7-14.2c-5.7-29.6-26.7-48.5-51.9-57c-20.5-6.8-43.9-6.8-64.4,0 c-25,8.5-46.2,27.3-51.9,57c-1.1,4.6-1.1,9.1-1.7,14.2v198.4c22.2,26.2,51.3,40.5,80.3,42.2h11.4c29.1-1.7,57.6-15.4,79.2-42.2 V535.4C597.5,534.2,597.5,533.7,597.5,532.5L597.5,532.5z" class="st22"/><path d="M596.9,526.6c0-5.1-0.6-9.7-1.7-14.2c-5.7-29.6-26.7-48.2-51.6-56.8c-20.5-6.8-43.8-6.8-64.2,0 c-25,8.5-46,27.3-51.6,56.8c-1.1,4.6-1.1,9.1-1.7,14.2v133c11.9,9,24.7,16.7,38.1,23.3c18.2,8.5,34.1,13.7,47.2,13.7 c12.5,0,28.4-4.6,46-12.5c13.9-6.9,27.1-14.9,39.8-23.9V526.6H596.9z" class="st23"/><path d="M508.5,178.3c-180.7,0-212.7,130.6-205,239.2v1.7c0.6,11.6,2.4,23.2,3.5,33.7c3,18.5,6.5,36.1,10,51.1 c7.7,29,15.4,50.5,20.1,56.3c11.3,16.3,45.5,47.7,82.1,73.1c32.5,22.6,66.8,40.6,89.2,40.6c22.4,0,56.1-18,88-40 c37.2-25.6,71.4-56.9,82.7-73.7c4.1-5.8,12.4-26.7,19.5-55.7c4.5-16.8,7.8-33.9,10-51.1c1.8-11.6,3-23.8,4.1-36.6 C721.1,307.8,689.3,178.3,508.5,178.3L508.5,178.3z" class="st22"/><path d="M334.2,449.5" class="st22"/><path d="M506.4,767.4l-80.3-78l-2.3-2.3l-5.7-5.7l-60.4,33.1l1.7,2.3l86,119.7l66.7-63.2L506.4,767.4z M606.7,681.3 l-6.3,6.3l-2.8,2.3l-79.2,77.5l-5.7,5.7l66.7,63.2l86-119.1l2.3-2.8L606.7,681.3z" class="st24"/><path d="M497,101.3c-187,0-223.5,156.5-223.5,206.5c0,77.2-7.3,184.7-7.3,184.7s18.9-73.7,20-68.8 c3,12.9,3.2,43.7,3.6,43.5c3.1-1,30.9,14.4,30.9,14.4L319,364c0,0,54.5,2,100-19.9c38.4-18.5,43.6-90.5,43.6-90.5 s23.4,83.2,78,95.9c54.7,13,143.9-13.2,152.7,25.4c12.3,54.5,5.2,78.9,1.9,114.3c-0.1,0.6,23.4-12.9,23.4-12.9s4-32.4,5.5-43.5 c2.6-19.6,12.7,49.5,12.7,48.9c0.5-15.6,14.6-87,14.6-166.6C751.4,211.8,661.1,101.3,497,101.3L497,101.3z" class="st19"/><path d="M308.3,419.2c0.1,0-8-21.2-25.4-10c-9.9,6.3-10.7,35.3-6.7,50.4c5,19.3,13.9,26.3,22,32 c6.5,4.2,16.8,3.6,16.8,3.3L308.3,419.2z" class="st22"/><path d="M715.7,411.6c-0.1,0,8.4-1.9,18.5,3.9c10.2,5.8,9.9,36.4,5.6,51.9c-5.5,19.8-14.6,26.6-22.9,32.3 c-6.7,4.1-18.9,4.1-18.8,3.9L715.7,411.6z" class="st22"/><path d="M715.2,411.7" class="st25"/></g></svg>